<svg viewBox="0 0 96 75" version="1.1" xmlns="http://www.w3.org/2000/svg" xmlns:xlink="http://www.w3.org/1999/xlink">
    <g id="Page-1" stroke="none" stroke-width="1" fill="none" fill-rule="evenodd">
        <g id="icon-azure-128" transform="translate(-16.000000, -26.000000)" fill="#0089D6" fill-rule="nonzero">
            <g id="Microsoft_Azure_Logo" transform="translate(16.000000, 26.000000)">
                <path d="M44.4119817,70.9947139 C56.7457527,68.7971004 66.9327429,66.9785755 67.0497424,66.9535494 L67.2624707,66.9080456 L55.6181751,52.937844 C49.2138175,45.2542317 43.9738853,38.9378486 43.9738853,38.9014378 C43.9738853,38.832501 55.997604,5.43568004 56.0651973,5.31686525 C56.087797,5.27714094 64.2703028,19.5260782 75.9001282,39.8572306 C86.7881837,58.8916196 95.7648575,74.5855418 95.8482929,74.7326061 L96,75 L58.9934684,74.9951854 L21.9869436,74.9903904 L44.4119817,70.9947276 L44.4119817,70.9947139 Z M1.1029816e-14,66.7344756 C1.1029816e-14,66.7148062 5.48673564,57.1079653 12.1927457,45.3859324 L24.3854894,24.073147 L38.5947227,12.0456946 C46.4098009,5.43059731 52.8250015,0.0101573004 52.8507213,0.000271725772 C52.8764411,-0.00961189165 52.7736356,0.251372366 52.6222641,0.580240439 C52.4708927,0.909108513 45.5277404,15.9301187 37.1930366,33.9602618 L22.0390333,66.7423394 L11.0195166,66.7562743 C4.95878385,66.7639464 0,66.7541215 0,66.7344677 L1.1029816e-14,66.7344756 Z" id="path21"></path>
            </g>
        </g>
    </g>
</svg>